MoBL_ARMS_Upper_Limb_Model_OpenSim_states
version=1
nRows=10
nColumns=55
inDegrees=yes

# SIMM Motion File Header:
name MoBL_ARMS_Upper_Limb_Model_OpenSim_states
datacolumns 55
datarows 10
otherdata 1
range 0.07525664 0.08154324
endheader
time	/jointset/sternoclavicular/sternoclavicular_r2/value	/jointset/sternoclavicular/sternoclavicular_r2/speed	/jointset/sternoclavicular/sternoclavicular_r3/value	/jointset/sternoclavicular/sternoclavicular_r3/speed	/jointset/unrotscap/unrotscap_r3/value	/jointset/unrotscap/unrotscap_r3/speed	/jointset/unrotscap/unrotscap_r2/value	/jointset/unrotscap/unrotscap_r2/speed	/jointset/acromioclavicular/acromioclavicular_r2/value	/jointset/acromioclavicular/acromioclavicular_r2/speed	/jointset/acromioclavicular/acromioclavicular_r3/value	/jointset/acromioclavicular/acromioclavicular_r3/speed	/jointset/acromioclavicular/acromioclavicular_r1/value	/jointset/acromioclavicular/acromioclavicular_r1/speed	/jointset/unrothum/unrothum_r1/value	/jointset/unrothum/unrothum_r1/speed	/jointset/unrothum/unrothum_r3/value	/jointset/unrothum/unrothum_r3/speed	/jointset/unrothum/unrothum_r2/value	/jointset/unrothum/unrothum_r2/speed	/jointset/shoulder0/elv_angle/value	/jointset/shoulder0/elv_angle/speed	/jointset/shoulder1/shoulder_elv/value	/jointset/shoulder1/shoulder_elv/speed	/jointset/shoulder1/shoulder1_r2/value	/jointset/shoulder1/shoulder1_r2/speed	/jointset/shoulder2/shoulder_rot/value	/jointset/shoulder2/shoulder_rot/speed	/jointset/elbow/elbow_flexion/value	/jointset/elbow/elbow_flexion/speed	/jointset/radioulnar/pro_sup/value	/jointset/radioulnar/pro_sup/speed	/jointset/radiocarpal/deviation/value	/jointset/radiocarpal/deviation/speed	/jointset/radiocarpal/flexion/value	/jointset/radiocarpal/flexion/speed	/jointset/wrist_hand/wrist_hand_r1/value	/jointset/wrist_hand/wrist_hand_r1/speed	/jointset/wrist_hand/wrist_hand_r3/value	/jointset/wrist_hand/wrist_hand_r3/speed	/forceset/SUP/activation	/forceset/SUP/fiber_length	/forceset/ECRL/activation	/forceset/ECRL/fiber_length	/forceset/ECRB/activation	/forceset/ECRB/fiber_length	/forceset/ECU/activation	/forceset/ECU/fiber_length	/forceset/FCR/activation	/forceset/FCR/fiber_length	/forceset/FCU/activation	/forceset/FCU/fiber_length	/forceset/PQ/activation	/forceset/PQ/fiber_length
      0.07525664	    -14.09290159	      0.00000000	      5.96908796	     -0.00000000	     -5.96908796	      0.00000000	     14.09290159	     -0.00000000	     -2.85352590	      0.00000000	     23.06119258	     -0.00000000	     10.36584735	     -0.00000000	    -10.36584735	      0.00000000	    -23.06119258	      0.00000000	      2.85352590	     -0.00000000	     -0.00000000	     -0.00000000	     58.23500000	     -0.00000000	      0.00000000	      0.00000000	     13.52900000	     -0.00000000	     95.58800000	     -0.00000000	      1.09816306	     66.01456070	      0.56427195	     15.43976737	      0.31798206	      9.70568773	     29.71240996	    568.69488248	      9.10951494	    278.04747210	      0.01000000	      0.03608946	      0.01000000	      0.07084158	      0.01000000	      0.06634647	      0.01000000	      0.06297127	      0.01000000	      0.05234817	      0.01000000	      0.03812810	      0.01000000	      0.02647789
      0.07584228	    -14.09290159	      0.00000000	      5.96908796	     -0.00000000	     -5.96908796	      0.00000000	     14.09290159	     -0.00000000	     -2.85352590	      0.00000000	     23.06119258	     -0.00000000	     10.36584735	     -0.00000000	    -10.36584735	      0.00000000	    -23.06119258	      0.00000000	      2.85352590	     -0.00000000	     -0.00000000	     -0.00000000	     58.23500000	     -0.00000000	      0.00000000	      0.00000000	     13.52900000	     -0.00000000	     95.58800000	     -0.00000000	      1.13700905	     66.62440162	      0.57330356	     15.40204740	      0.32364624	      9.63695721	     30.04507232	    567.30553789	      9.27178190	    276.07848772	      0.01000000	      0.03609614	      0.01000000	      0.07094963	      0.01000000	      0.06640972	      0.01000000	      0.06292464	      0.01000000	      0.05225347	      0.01000000	      0.03805134	      0.01000000	      0.02647303
      0.07661427	    -14.09290159	      0.00000000	      5.96908796	     -0.00000000	     -5.96908796	      0.00000000	     14.09290159	     -0.00000000	     -2.85352590	      0.00000000	     23.06119258	     -0.00000000	     10.36584735	     -0.00000000	    -10.36584735	      0.00000000	    -23.06119258	      0.00000000	      2.85352590	     -0.00000000	     -0.00000000	     -0.00000000	     58.23500000	     -0.00000000	      0.00000000	      0.00000000	     13.52900000	     -0.00000000	     95.58800000	     -0.00000000	      1.18869035	     67.23368144	      0.58516961	     15.33670791	      0.33104834	      9.53843761	     30.48213612	    564.89888059	      9.48383629	    273.25610902	      0.01000000	      0.03610506	      0.01000000	      0.07109031	      0.01000000	      0.06648373	      0.01000000	      0.06286568	      0.01000000	      0.05212863	      0.01000000	      0.03795016	      0.01000000	      0.02646656
      0.07724819	    -14.09290159	      0.00000000	      5.96908796	     -0.00000000	     -5.96908796	      0.00000000	     14.09290159	     -0.00000000	     -2.85352590	      0.00000000	     23.06119258	     -0.00000000	     10.36584735	     -0.00000000	    -10.36584735	      0.00000000	    -23.06119258	      0.00000000	      2.85352590	     -0.00000000	     -0.00000000	     -0.00000000	     58.23500000	     -0.00000000	      0.00000000	      0.00000000	     13.52900000	     -0.00000000	     95.58800000	     -0.00000000	      1.23142366	     67.56086694	      0.59487085	     15.26776861	      0.33706725	      9.44963799	     30.83946329	    562.35963058	      9.65626542	    270.71218727	      0.01000000	      0.03611245	      0.01000000	      0.07120393	      0.01000000	      0.06655313	      0.01000000	      0.06281940	      0.01000000	      0.05202612	      0.01000000	      0.03786707	      0.01000000	      0.02646119
      0.07788212	    -14.09290159	      0.00000000	      5.96908796	     -0.00000000	     -5.96908796	      0.00000000	     14.09290159	     -0.00000000	     -2.85352590	      0.00000000	     23.06119258	     -0.00000000	     10.36584735	     -0.00000000	    -10.36584735	      0.00000000	    -23.06119258	      0.00000000	      2.85352590	     -0.00000000	     -0.00000000	     -0.00000000	     58.23500000	     -0.00000000	      0.00000000	      0.00000000	     13.52900000	     -0.00000000	     95.58800000	     -0.00000000	      1.27431785	     67.74397425	      0.60452396	     15.18489183	      0.34302770	      9.35411356	     31.19501729	    559.30701976	      9.82701961	    267.97561413	      0.01000000	      0.03611990	      0.01000000	      0.07131603	      0.01000000	      0.06660929	      0.01000000	      0.06277504	      0.01000000	      0.05192361	      0.01000000	      0.03778399	      0.01000000	      0.02645580
      0.07851604	    -14.09290159	      0.00000000	      5.96908796	     -0.00000000	     -5.96908796	      0.00000000	     14.09290159	     -0.00000000	     -2.85352590	      0.00000000	     23.06119258	     -0.00000000	     10.36584735	     -0.00000000	    -10.36584735	      0.00000000	    -23.06119258	      0.00000000	      2.85352590	     -0.00000000	     -0.00000000	     -0.00000000	     58.23500000	     -0.00000000	      0.00000000	      0.00000000	     13.52900000	     -0.00000000	     95.58800000	     -0.00000000	      1.31727884	     67.76982103	      0.61411957	     15.08610929	      0.34892513	      9.25067552	     31.54845373	    555.66855030	      9.99596858	    265.01233260	      0.01000000	      0.03612737	      0.01000000	      0.07142645	      0.01000000	      0.06667168	      0.01000000	      0.06273260	      0.01000000	      0.05182110	      0.01000000	      0.03770090	      0.01000000	      0.02645039
      0.07936308	    -14.09290159	      0.00000000	      5.96908796	     -0.00000000	     -5.96908796	      0.00000000	     14.09290159	     -0.00000000	     -2.85352590	      0.00000000	     23.06119258	     -0.00000000	     10.36584735	     -0.00000000	    -10.36584735	      0.00000000	    -23.06119258	      0.00000000	      2.85352590	     -0.00000000	     -0.00000000	     -0.00000000	     58.23500000	     -0.00000000	      0.00000000	      0.00000000	     13.52900000	     -0.00000000	     95.58800000	     -0.00000000	      1.37461476	     67.56619801	      0.62683340	     14.92843358	      0.35669806	      9.10024129	     32.01674366	    549.86086112	     10.21864663	    260.70270910	      0.01000000	      0.03613738	      0.01000000	      0.07157136	      0.01000000	      0.06674696	      0.01000000	      0.06267888	      0.01000000	      0.05168412	      0.01000000	      0.03758988	      0.01000000	      0.02644315
      0.08008980	    -14.09290159	      0.00000000	      5.96908796	     -0.00000000	     -5.96908796	      0.00000000	     14.09290159	     -0.00000000	     -2.85352590	      0.00000000	     23.06119258	     -0.00000000	     10.36584735	     -0.00000000	    -10.36584735	      0.00000000	    -23.06119258	      0.00000000	      2.85352590	     -0.00000000	     -0.00000000	     -0.00000000	     58.23500000	     -0.00000000	      0.00000000	      0.00000000	     13.52900000	     -0.00000000	     95.58800000	     -0.00000000	      1.42358180	     67.15731265	      0.63762523	     14.76737507	      0.36326076	      8.95881449	     32.41424054	    543.92857260	     10.40665409	    256.65112997	      0.01000000	      0.03614596	      0.01000000	      0.07169263	      0.01000000	      0.06681754	      0.01000000	      0.06263548	      0.01000000	      0.05156660	      0.01000000	      0.03749463	      0.01000000	      0.02643695
      0.08081652	    -14.09290159	      0.00000000	      5.96908796	     -0.00000000	     -5.96908796	      0.00000000	     14.09290159	     -0.00000000	     -2.85352590	      0.00000000	     23.06119258	     -0.00000000	     10.36584735	     -0.00000000	    -10.36584735	      0.00000000	    -23.06119258	      0.00000000	      2.85352590	     -0.00000000	     -0.00000000	     -0.00000000	     58.23500000	     -0.00000000	      0.00000000	      0.00000000	     13.52900000	     -0.00000000	     95.58800000	     -0.00000000	      1.47217441	     66.53763557	      0.64829111	     14.58178820	      0.36971655	      8.80613008	     32.80709835	    537.09282817	     10.59159901	    252.27704384	      0.01000000	      0.03615450	      0.01000000	      0.07181151	      0.01000000	      0.06687646	      0.01000000	      0.06259454	      0.01000000	      0.05144909	      0.01000000	      0.03739938	      0.01000000	      0.02643079
      0.08154324	    -14.09290159	      0.00000000	      5.96908796	     -0.00000000	     -5.96908796	      0.00000000	     14.09290159	     -0.00000000	     -2.85352590	      0.00000000	     23.06119258	     -0.00000000	     10.36584735	     -0.00000000	    -10.36584735	      0.00000000	    -23.06119258	      0.00000000	      2.85352590	     -0.00000000	     -0.00000000	     -0.00000000	     58.23500000	     -0.00000000	      0.00000000	      0.00000000	     13.52900000	     -0.00000000	     95.58800000	     -0.00000000	      1.52023336	     65.68566797	      0.65881249	     14.36935758	      0.37605689	      8.64091077	     33.19463362	    529.26834481	     10.77323644	    247.54385913	      0.01000000	      0.03616297	      0.01000000	      0.07192752	      0.01000000	      0.06693961	      0.01000000	      0.06255602	      0.01000000	      0.05133157	      0.01000000	      0.03730413	      0.01000000	      0.02642469
